<?xml version="1.0" standalone="no"?>
<!DOCTYPE svg PUBLIC "-//W3C//DTD SVG 20010904//EN"
 "http://www.w3.org/TR/2001/REC-SVG-20010904/DTD/svg10.dtd">
<svg version="1.0" xmlns="http://www.w3.org/2000/svg"
 width="1194.000000pt" height="1280.000000pt" viewBox="0 0 1194.000000 1280.000000"
 preserveAspectRatio="xMidYMid meet">
<metadata>
Created by potrace 1.15, written by Peter Selinger 2001-2017
</metadata>
<g transform="translate(0.000000,1280.000000) scale(0.100000,-0.100000)"
fill="#000000" stroke="none">
<path d="M3978 12403 l-3 -398 -397 -3 -398 -2 0 -2400 0 -2400 -392 2 -393 3
-3 398 -2 397 -790 0 -790 0 0 -400 0 -400 790 0 790 0 0 -400 0 -400 395 0
395 0 0 -385 0 -385 400 0 400 0 0 3185 0 3185 795 0 795 0 0 -2400 0 -2400
400 0 400 0 0 800 0 800 795 0 795 0 0 -800 0 -800 400 0 400 0 0 800 0 800
390 0 390 0 -2 403 -3 402 -1583 0 -1582 0 0 1197 0 1198 -397 2 -398 3 -3
398 -2 397 -795 0 -795 0 -2 -397z"/>
<path d="M9550 8000 l0 -800 400 0 400 0 0 400 0 400 395 0 395 0 0 -1990 0
-1990 400 0 400 0 0 1990 0 1990 -385 1 c-212 1 -391 2 -397 3 -10 1 -14 89
-16 399 l-2 397 -795 0 -795 0 0 -800z"/>
<path d="M0 6400 l0 -800 400 0 400 0 0 -397 -1 -398 396 -3 395 -2 0 -800 0
-800 400 0 400 0 0 -400 0 -400 395 0 395 0 0 -400 0 -400 400 0 400 0 0 -800
0 -800 1985 0 1985 0 0 400 0 400 -1585 0 -1585 0 -2 400 -3 401 -397 -1 -398
0 0 400 0 400 -397 2 -398 3 -3 398 -2 397 -395 0 -395 0 0 800 0 800 -400 0
-400 0 0 403 0 402 -395 -3 -395 -2 0 800 0 800 -400 0 -400 0 0 -800z"/>
<path d="M5570 4000 l0 -1600 400 0 400 0 0 1600 0 1600 -400 0 -400 0 0
-1600z"/>
<path d="M7160 4000 l0 -1600 400 0 400 0 0 1600 0 1600 -400 0 -400 0 0
-1600z"/>
<path d="M8752 4003 l3 -1598 398 -3 397 -2 0 -800 0 -800 -395 0 -395 0 0
400 0 400 -400 0 -400 0 0 -400 0 -400 400 0 400 0 0 -400 0 -400 795 0 795 0
0 1200 0 1200 395 0 395 0 0 800 0 800 -395 0 -395 0 0 -800 0 -800 -400 0
-400 0 0 1600 0 1600 -400 0 -400 0 2 -1597z"/>
</g>
</svg>
